Coordinates
version=1
nRows=22
nColumns=24
inDegrees=yes

Units are S.I. units (second, meters, Newtons, ...)
Angles are in degrees.

endheader
time	pelvis_tilt	pelvis_list	pelvis_rotation	pelvis_tx	pelvis_ty	pelvis_tz	hip_flexion_r	hip_adduction_r	hip_rotation_r	knee_angle_r	ankle_angle_r	subtalar_angle_r	mtp_angle_r	hip_flexion_l	hip_adduction_l	hip_rotation_l	knee_angle_l	ankle_angle_l	subtalar_angle_l	mtp_angle_l	lumbar_extension	lumbar_bending	lumbar_rotation
      0.50400000	     -0.28726544	      1.10735174	     10.91236337	     -0.86788633	      0.89186382	      0.29742816	     26.36802371	     -1.67485260	    -11.76175132	     -4.61884734	      2.79571454	      1.39658490	      5.40273689	    -16.63179543	      2.11078694	      4.66015529	     -8.87814633	     17.68084122	      2.87257755	      7.99544489	     -6.07105671	     -2.22766390	    -11.12961338
      0.50816667	     -0.32761954	      1.03618328	     10.95040650	     -0.86179039	      0.89088775	      0.29771466	     26.48703960	     -1.48740238	    -11.55446446	     -5.15404172	      2.69259723	      1.37373210	      5.34984766	    -16.60646226	      1.93006059	      4.45667466	     -9.66845321	     17.83898237	      3.27591685	      8.10936510	     -5.97952649	     -2.12033699	    -11.08403763
      0.51233333	     -0.33683764	      0.94498625	     10.97709627	     -0.85563069	      0.88999136	      0.29802575	     26.55789120	     -1.26404452	    -11.32086245	     -5.71282819	      2.52700179	      1.28214033	      5.33333238	    -16.59537110	      1.71902724	      4.21582988	    -10.49748415	     17.96796152	      3.71629222	      8.27471556	     -5.91303170	     -1.98147342	    -11.03147523
      0.51650000	     -0.34906753	      0.84692941	     10.98584491	     -0.84941597	      0.88911827	      0.29834422	     26.62796265	     -1.02596167	    -11.04692473	     -6.31292023	      2.32797426	      1.14752033	      5.34707212	    -16.57622258	      1.51137625	      4.01087316	    -11.34848451	     18.08896833	      4.01069889	      8.42571975	     -5.81882391	     -1.81633176	    -10.96159752
      0.52066667	     -0.30383464	      0.72048416	     10.99443594	     -0.84314027	      0.88837243	      0.29869722	     26.62222924	     -0.74247847	    -10.79476643	     -6.91882473	      2.01776345	      0.91819860	      5.43070905	    -16.58228558	      1.23754450	      3.64732701	    -12.25359603	     18.11087055	      4.63836437	      8.85532628	     -5.82218732	     -1.62922118	    -10.88639187
      0.52483333	     -0.30176728	      0.60209047	     10.98934637	     -0.83685150	      0.88759635	      0.29904989	     26.67172140	     -0.47052532	    -10.49531439	     -7.57696005	      1.66381397	      0.61347004	      5.56742471	    -16.52746940	      0.99414753	      3.36684928	    -13.20177043	     18.10577045	      5.07003669	      9.38778746	     -5.74413878	     -1.44626074	    -10.78005048
      0.52900000	     -0.36347347	      0.50323658	     10.99703738	     -0.83055458	      0.88679162	      0.29936677	     26.80354640	     -0.24278696	    -10.22118647	     -8.30394236	      1.27031990	      0.30880654	      5.62191973	    -16.40694416	      0.79635319	      3.25487008	    -14.14436708	     17.99417094	      5.23935939	      9.59515102	     -5.59070587	     -1.29746889	    -10.68463961
      0.53316667	     -0.29664405	      0.36564248	     10.98769035	     -0.82419055	      0.88618810	      0.29974894	     26.77032452	      0.06835198	     -9.91216005	     -8.98177141	      0.79978702	     -0.19908062	      5.77512825	    -16.37055636	      0.50165230	      2.89591449	    -15.18547345	     17.92496286	      5.82758230	     10.11903512	     -5.59160335	     -1.08535701	    -10.54366144
      0.53733333	     -0.25231156	      0.19313731	     10.94399115	     -0.81772921	      0.88559472	      0.30016718	     26.74266459	      0.42798234	     -9.55635494	     -9.62126645	      0.24364668	     -0.66546034	      6.08270905	    -16.29740600	      0.18124083	      2.50553856	    -16.25347600	     17.74047483	      6.30090741	     11.15662040	     -5.52426059	     -0.81030881	    -10.40934962
      0.54150000	     -0.29297501	      0.09159500	     10.93022379	     -0.81136473	      0.88493638	      0.30049595	     26.87242525	      0.65976011	     -9.30719493	    -10.44029464	     -0.26141767	     -1.05217793	      7.36452303	    -16.11889345	     -0.03379355	      2.32106352	    -17.33768081	     17.41549194	      6.49516663	     15.83625565	     -5.38552705	     -0.64883973	    -10.32156871
      0.54566667	     -0.31802967	     -0.03015851	     10.89988166	     -0.80495066	      0.88437648	      0.30087062	     26.94362757	      0.93809053	     -8.95546527	    -11.17162210	     -0.83235028	     -1.60179995	      7.35148033	    -15.94466511	     -0.26201773	      2.19453471	    -18.45219342	     17.02614669	      6.61577108	     15.89935123	     -5.25685138	     -0.46703281	    -10.15236255
      0.54983333	     -0.32025149	     -0.16538480	     10.85656694	     -0.79851000	      0.88386902	      0.30127527	     26.99800289	      1.23860327	     -8.60202671	    -11.92242804	     -1.40622888	     -2.20882877	      7.35086528	    -15.74977535	     -0.52526742	      1.95509278	    -19.64775681	     16.66239369	      6.93096319	     16.02869762	     -5.14035686	     -0.24949205	     -9.97868030
      0.55400000	     -0.24886668	     -0.32413981	     10.81286601	     -0.79203909	      0.88349191	      0.30171590	     26.97701606	      1.57445476	     -8.29072489	    -12.68645327	     -1.91767879	     -2.78770853	      7.62944434	    -15.57818374	     -0.85797292	      1.58182677	    -20.93734133	     16.26004545	      7.44157026	     18.90630225	     -5.13390073	     -0.00969495	     -9.85818234
      0.55816667	     -0.27682999	     -0.46028942	     10.74992474	     -0.78555969	      0.88306476	      0.30211207	     27.07045618	      1.86696050	     -7.95208834	    -13.47955826	     -2.45184268	     -3.32964313	      7.62081795	    -15.32504474	     -1.09526495	      1.46249955	    -22.17410718	     15.69225133	      7.47978499	     18.96992724	     -4.98039338	      0.21874201	     -9.65928169
      0.56233333	     -0.24958134	     -0.60418790	     10.69025124	     -0.77912748	      0.88272379	      0.30258924	     27.10468009	      2.18628449	     -7.58646754	    -14.26770314	     -2.97463963	     -4.02638011	      7.61620387	    -15.04392380	     -1.38957113	      1.19370644	    -23.57532455	     15.24752614	      7.81409936	     19.16935770	     -4.92082416	      0.42202493	     -9.43068365
      0.56650000	     -0.19538231	     -0.78836238	     10.63228643	     -0.77261512	      0.88248819	      0.30304610	     27.09754786	      2.54606882	     -7.26323090	    -15.04081454	     -3.38874275	     -4.64098144	      7.61549257	    -14.77358985	     -1.73958265	      0.92425419	    -24.98014785	     14.62668270	      8.14947713	     19.66198836	     -4.86114143	      0.72138865	     -9.22651344
      0.57066667	     -0.22205533	     -0.90443144	     10.55453731	     -0.76618858	      0.88216499	      0.30349738	     27.23829650	      2.80948942	     -6.96828776	    -15.96960666	     -3.70528674	     -5.15123618	      7.60548913	    -14.39267992	     -1.97496388	      0.76358660	    -26.43233391	     13.95291483	      8.30773901	     20.01900122	     -4.73054980	      0.91394070	     -9.05433337
      0.57483333	     -0.21366474	     -1.05155429	     10.48069378	     -0.75974106	      0.88194309	      0.30397967	     27.31513717	      3.11639036	     -6.66618455	    -16.84460679	     -3.95026226	     -5.65681701	      7.58562134	    -13.99916540	     -2.27262517	      0.54208835	    -27.95077038	     13.22176531	      8.54879267	     20.44495157	     -4.63649079	      1.14377056	     -8.86087923
      0.57900000	     -0.21391285	     -1.19222265	     10.40642590	     -0.75331084	      0.88175517	      0.30447818	     27.39948866	      3.41412543	     -6.36631318	    -17.72922488	     -4.09310939	     -6.08595712	      7.55768051	    -13.55906247	     -2.56376900	      0.35121010	    -29.52251559	     12.38826587	      8.73414853	     20.84993521	     -4.53401210	      1.33666576	     -8.68245939
      0.58316667	     -0.16092629	     -1.35991532	     10.32643221	     -0.74685093	      0.88168714	      0.30499259	     27.41343217	      3.75466221	     -6.07781782	    -18.59578268	     -4.10929922	     -6.51243165	      7.04895019	    -13.14975237	     -2.90831596	      0.11691542	    -31.10067628	     11.41981666	      8.85054442	     26.29631455	     -4.48709045	      1.61173583	     -8.53556251
      0.58733333	     -0.13447201	     -1.50510734	     10.26098700	     -0.74042696	      0.88163883	      0.30545931	     27.46635774	      4.04513857	     -5.86184458	    -19.50659248	     -4.02400122	     -6.76495777	      7.04918889	    -12.68162887	     -3.21076728	     -0.01299831	    -32.71521112	     10.42298097	      8.96062787	     26.31519509	     -4.41729867	      1.85287042	     -8.39244129
      0.59150000	     -0.12565569	     -1.65258588	     10.18817910	     -0.73406949	      0.88156318	      0.30599337	     27.53801911	      4.34477542	     -5.63677141	    -20.41046072	     -3.91810218	     -7.08509249	      7.03254951	    -12.12913056	     -3.53689986	     -0.20891246	    -34.43653746	      9.46292665	      9.14545760	     26.38157741	     -4.32622265	      2.05410945	     -8.19995876
